<?xml version="1.0" encoding="UTF-8" standalone="no" ?>
<!DOCTYPE svg PUBLIC "-//W3C//DTD SVG 1.1//EN" "http://www.w3.org/Graphics/SVG/1.1/DTD/svg11.dtd">
<svg xmlns="http://www.w3.org/2000/svg" xmlns:xlink="http://www.w3.org/1999/xlink" version="1.1" width="400" height="400" viewBox="0 0 400 400" xml:space="preserve">
<desc>Created with Fabric.js 3.6.2</desc>
<defs>
</defs>
<g transform="matrix(4.17 0 0 4.17 207.94 162.92)" id="surface1"  >
<path style="stroke: none; stroke-width: 1; stroke-dasharray: none; stroke-linecap: butt; stroke-dashoffset: 0; stroke-linejoin: miter; stroke-miterlimit: 4; fill: rgb(93,64,55); fill-rule: nonzero; opacity: 1;"  transform=" translate(-25.91, -15.1)" d="M 32.2 18.3 c -0.1 -1.7 -1.8 -7.5 -7.3 -10.8 c -1.1 -0.7 -2.4 -1 -3.6 -1.3 c 1.5 2 2.2 3.8 2.1 5.6 c 0 0.9 -0.6 1.9 -1 2.5 C 22 15 19.6 16 19.6 19.4 c 0 2.7 2.4 4.7 5.1 4.6 c 0.7 0 1.3 -0.2 1.8 -0.5 c 0.1 0 0.4 0.5 0.5 0.5 C 30 23.9 32.4 21.2 32.2 18.3 z" stroke-linecap="round" />
</g>
<g transform="matrix(4.17 0 0 4.17 204.61 211.46)" id="surface1"  >
<path style="stroke: none; stroke-width: 1; stroke-dasharray: none; stroke-linecap: butt; stroke-dashoffset: 0; stroke-linejoin: miter; stroke-miterlimit: 4; fill: rgb(121,85,72); fill-rule: nonzero; opacity: 1;"  transform=" translate(-25.11, -26.75)" d="M 29.4 33 c -11.2 0 -15.8 -5.5 -16.3 -6.1 l 7.9 -6.2 c 0 0 0 -0.1 -0.1 -0.2 c 0.1 0.1 2.9 3 10.8 2.4 c 2.7 -0.2 5.2 1.8 5.4 4.6 c 0.2 2.8 -1.8 5.2 -4.6 5.4 C 31.4 33 30.3 33 29.4 33 z" stroke-linecap="round" />
</g>
<g transform="matrix(4.17 0 0 4.17 200.12 243.05)" id="surface1"  >
<path style="stroke: none; stroke-width: 1; stroke-dasharray: none; stroke-linecap: butt; stroke-dashoffset: 0; stroke-linejoin: miter; stroke-miterlimit: 4; fill: rgb(141,110,99); fill-rule: nonzero; opacity: 1;"  transform=" translate(-24.03, -34.33)" d="M 25.1 41.7 c -10.6 0 -17 -5.6 -17.4 -6 c -2.1 -1.8 -2.2 -5 -0.4 -7.1 c 1.8 -2 5 -2.2 7 -0.4 c 0.4 0.3 8.1 6.7 20.7 1.2 c 2.5 -1.1 5.5 0 6.6 2.6 c 1.1 2.5 0 5.5 -2.6 6.6 C 33.8 40.9 29.1 41.7 25.1 41.7 z" stroke-linecap="round" />
</g>
</svg>